<mxfile host="app.diagrams.net" agent="Mozilla/5.0 (Macintosh; Intel Mac OS X 10_15_7) AppleWebKit/605.1.15 (KHTML, like Gecko) Version/17.5 Safari/605.1.15" version="24.8.3">
  <diagram name="Page-1" id="K5rZnfaNXqdGQWzJHBXx">
    <mxGraphModel dx="984" dy="666" grid="1" gridSize="10" guides="1" tooltips="1" connect="1" arrows="1" fold="1" page="1" pageScale="1" pageWidth="850" pageHeight="1100" math="0" shadow="0">
      <root>
        <mxCell id="0" />
        <mxCell id="1" parent="0" />
        <mxCell id="4yrj1IGlOvozGAcBZ6Sz-1" value="Easy LMS" style="strokeWidth=1;shadow=0;dashed=0;align=center;html=1;shape=mxgraph.mockup.containers.window;align=left;verticalAlign=top;spacingLeft=8;strokeColor2=#008cff;strokeColor3=#c4c4c4;fontColor=#666666;mainText=;fontSize=17;labelBackgroundColor=none;whiteSpace=wrap;" vertex="1" parent="1">
          <mxGeometry x="105" y="30" width="725" height="2000" as="geometry" />
        </mxCell>
        <mxCell id="4yrj1IGlOvozGAcBZ6Sz-2" value="" style="html=1;shadow=0;dashed=0;fillColor=#F8F9FA;strokeColor=none;fontSize=16;fontColor=#181819;align=left;spacing=15;" vertex="1" parent="1">
          <mxGeometry x="105" y="60" width="725" height="60" as="geometry" />
        </mxCell>
        <mxCell id="4yrj1IGlOvozGAcBZ6Sz-3" value="" style="swimlane;shape=mxgraph.bootstrap.anchor;strokeColor=none;fillColor=none;fontColor=#0085FC;fontStyle=0;childLayout=stackLayout;horizontal=0;startSize=0;horizontalStack=1;resizeParent=1;resizeParentMax=0;resizeLast=0;collapsible=0;marginBottom=0;whiteSpace=wrap;html=1;resizeWidth=0;" vertex="1" parent="4yrj1IGlOvozGAcBZ6Sz-2">
          <mxGeometry y="10" width="80" height="40" as="geometry" />
        </mxCell>
        <mxCell id="4yrj1IGlOvozGAcBZ6Sz-4" value="Logo" style="text;strokeColor=none;align=center;verticalAlign=middle;spacingLeft=10;spacingRight=10;points=[[0,0.5],[1,0.5]];portConstraint=eastwest;rotatable=0;whiteSpace=wrap;html=1;fillColor=none;fontColor=#181819;fontSize=16;" vertex="1" parent="4yrj1IGlOvozGAcBZ6Sz-3">
          <mxGeometry width="80" height="40" as="geometry" />
        </mxCell>
        <mxCell id="4yrj1IGlOvozGAcBZ6Sz-10" value="Login" style="html=1;shadow=0;dashed=0;shape=mxgraph.bootstrap.rrect;rSize=5;fontSize=14;fontColor=#33A64C;strokeColor=#33A64C;fillColor=none;" vertex="1" parent="4yrj1IGlOvozGAcBZ6Sz-2">
          <mxGeometry x="1" width="70" height="40" relative="1" as="geometry">
            <mxPoint x="-80" y="10" as="offset" />
          </mxGeometry>
        </mxCell>
        <mxCell id="4yrj1IGlOvozGAcBZ6Sz-5" value="Home" style="text;strokeColor=none;align=center;verticalAlign=middle;spacingLeft=10;spacingRight=10;points=[[0,0.5],[1,0.5]];portConstraint=eastwest;rotatable=0;whiteSpace=wrap;html=1;fillColor=none;fontColor=#181819;fontSize=14;" vertex="1" parent="4yrj1IGlOvozGAcBZ6Sz-2">
          <mxGeometry x="465" y="10" width="50" height="40" as="geometry" />
        </mxCell>
        <mxCell id="4yrj1IGlOvozGAcBZ6Sz-6" value="About" style="text;strokeColor=none;align=center;verticalAlign=middle;spacingLeft=10;spacingRight=10;points=[[0,0.5],[1,0.5]];portConstraint=eastwest;rotatable=0;whiteSpace=wrap;html=1;fillColor=none;fontColor=#7C7C7D;fontSize=14;" vertex="1" parent="4yrj1IGlOvozGAcBZ6Sz-2">
          <mxGeometry x="515" y="10" width="70" height="40" as="geometry" />
        </mxCell>
        <mxCell id="4yrj1IGlOvozGAcBZ6Sz-20" value="Contact" style="text;strokeColor=none;align=center;verticalAlign=middle;spacingLeft=10;spacingRight=10;points=[[0,0.5],[1,0.5]];portConstraint=eastwest;rotatable=0;whiteSpace=wrap;html=1;fillColor=none;fontColor=#7C7C7D;fontSize=14;" vertex="1" parent="4yrj1IGlOvozGAcBZ6Sz-2">
          <mxGeometry x="575" y="10" width="70" height="40" as="geometry" />
        </mxCell>
        <mxCell id="4yrj1IGlOvozGAcBZ6Sz-21" value="&lt;font style=&quot;font-size: 24px;&quot;&gt;Create You Own Online Learning Community&lt;/font&gt;" style="text;html=1;align=left;verticalAlign=middle;whiteSpace=wrap;rounded=0;" vertex="1" parent="1">
          <mxGeometry x="135" y="120" width="305" height="100" as="geometry" />
        </mxCell>
        <mxCell id="4yrj1IGlOvozGAcBZ6Sz-22" value="We have everything you need and nothing you donÂ´t." style="text;html=1;align=left;verticalAlign=middle;whiteSpace=wrap;rounded=0;" vertex="1" parent="1">
          <mxGeometry x="135" y="210" width="450" height="30" as="geometry" />
        </mxCell>
        <mxCell id="4yrj1IGlOvozGAcBZ6Sz-23" value="Sing Up" style="html=1;shadow=0;dashed=0;shape=mxgraph.bootstrap.rrect;rSize=5;strokeColor=none;strokeWidth=1;fillColor=#0085FC;fontColor=#FFFFFF;whiteSpace=wrap;align=center;verticalAlign=middle;spacingLeft=0;fontStyle=0;fontSize=16;spacing=5;" vertex="1" parent="1">
          <mxGeometry x="135" y="260" width="80" height="40" as="geometry" />
        </mxCell>
        <mxCell id="4yrj1IGlOvozGAcBZ6Sz-25" value="Book a Call" style="html=1;shadow=0;dashed=0;shape=mxgraph.bootstrap.rrect;rSize=5;strokeColor=none;strokeWidth=1;fillColor=#333333;fontColor=#FFFFFF;whiteSpace=wrap;align=center;verticalAlign=middle;spacingLeft=0;fontStyle=0;fontSize=16;spacing=5;" vertex="1" parent="1">
          <mxGeometry x="247.5" y="260" width="122.5" height="40" as="geometry" />
        </mxCell>
        <mxCell id="4yrj1IGlOvozGAcBZ6Sz-26" value="" style="sketch=0;outlineConnect=0;fontColor=#232F3E;gradientColor=none;fillColor=#ED7100;strokeColor=none;dashed=0;verticalLabelPosition=bottom;verticalAlign=top;align=center;html=1;fontSize=12;fontStyle=0;aspect=fixed;pointerEvents=1;shape=mxgraph.aws4.container_registry_image;" vertex="1" parent="1">
          <mxGeometry x="247.5" y="340" width="130" height="130" as="geometry" />
        </mxCell>
        <mxCell id="4yrj1IGlOvozGAcBZ6Sz-27" value="" style="sketch=0;outlineConnect=0;fontColor=#232F3E;gradientColor=none;fillColor=#ED7100;strokeColor=none;dashed=0;verticalLabelPosition=bottom;verticalAlign=top;align=center;html=1;fontSize=12;fontStyle=0;aspect=fixed;pointerEvents=1;shape=mxgraph.aws4.container_registry_image;" vertex="1" parent="1">
          <mxGeometry x="530" y="250" width="220" height="220" as="geometry" />
        </mxCell>
        <mxCell id="4yrj1IGlOvozGAcBZ6Sz-28" value="" style="rounded=0;whiteSpace=wrap;html=1;fillColor=#666666;" vertex="1" parent="1">
          <mxGeometry x="105" y="520" width="725" height="720" as="geometry" />
        </mxCell>
        <mxCell id="4yrj1IGlOvozGAcBZ6Sz-29" value="&lt;font style=&quot;font-size: 24px;&quot;&gt;Create You Own Online Learning Community&lt;/font&gt;" style="text;html=1;align=center;verticalAlign=middle;whiteSpace=wrap;rounded=0;fontColor=#FFFFFF;" vertex="1" parent="1">
          <mxGeometry x="315" y="530" width="305" height="100" as="geometry" />
        </mxCell>
        <mxCell id="4yrj1IGlOvozGAcBZ6Sz-30" value="Video" style="html=1;whiteSpace=wrap;strokeColor=none;fillColor=#0079D6;labelPosition=center;verticalLabelPosition=middle;verticalAlign=top;align=center;fontSize=12;outlineConnect=0;spacingTop=-6;fontColor=#FFFFFF;sketch=0;shape=mxgraph.sitemap.video;" vertex="1" parent="1">
          <mxGeometry x="267.5" y="630" width="400" height="220" as="geometry" />
        </mxCell>
        <mxCell id="4yrj1IGlOvozGAcBZ6Sz-31" value="Sing Up" style="html=1;shadow=0;dashed=0;shape=mxgraph.bootstrap.rrect;rSize=5;strokeColor=none;strokeWidth=1;fillColor=#0085FC;fontColor=#FFFFFF;whiteSpace=wrap;align=center;verticalAlign=middle;spacingLeft=0;fontStyle=0;fontSize=16;spacing=5;" vertex="1" parent="1">
          <mxGeometry x="267.5" y="890" width="80" height="40" as="geometry" />
        </mxCell>
        <mxCell id="4yrj1IGlOvozGAcBZ6Sz-32" value="Book a Call" style="html=1;shadow=0;dashed=0;shape=mxgraph.bootstrap.rrect;rSize=5;strokeColor=none;strokeWidth=1;fillColor=#333333;fontColor=#FFFFFF;whiteSpace=wrap;align=center;verticalAlign=middle;spacingLeft=0;fontStyle=0;fontSize=16;spacing=5;" vertex="1" parent="1">
          <mxGeometry x="380" y="890" width="122.5" height="40" as="geometry" />
        </mxCell>
        <mxCell id="4yrj1IGlOvozGAcBZ6Sz-33" value="&lt;font style=&quot;font-size: 24px;&quot;&gt;Testimonials&lt;/font&gt;" style="text;html=1;align=center;verticalAlign=middle;whiteSpace=wrap;rounded=0;fontColor=#FFFFFF;" vertex="1" parent="1">
          <mxGeometry x="315" y="990" width="305" height="100" as="geometry" />
        </mxCell>
        <mxCell id="4yrj1IGlOvozGAcBZ6Sz-34" value="" style="rounded=1;whiteSpace=wrap;html=1;" vertex="1" parent="1">
          <mxGeometry x="170" y="1090" width="170" height="90" as="geometry" />
        </mxCell>
        <mxCell id="4yrj1IGlOvozGAcBZ6Sz-35" value="" style="rounded=1;whiteSpace=wrap;html=1;" vertex="1" parent="1">
          <mxGeometry x="597.5" y="1090" width="170" height="90" as="geometry" />
        </mxCell>
        <mxCell id="4yrj1IGlOvozGAcBZ6Sz-36" value="" style="rounded=1;whiteSpace=wrap;html=1;" vertex="1" parent="1">
          <mxGeometry x="380" y="1090" width="170" height="90" as="geometry" />
        </mxCell>
        <mxCell id="4yrj1IGlOvozGAcBZ6Sz-38" value="Testimonials text&lt;div&gt;&lt;b&gt;Source&lt;/b&gt;&lt;/div&gt;" style="text;html=1;align=left;verticalAlign=middle;whiteSpace=wrap;rounded=0;" vertex="1" parent="1">
          <mxGeometry x="195" y="1100" width="130" height="50" as="geometry" />
        </mxCell>
        <mxCell id="4yrj1IGlOvozGAcBZ6Sz-39" value="Testimonials text&lt;div&gt;&lt;b&gt;Source&lt;/b&gt;&lt;/div&gt;" style="text;html=1;align=left;verticalAlign=middle;whiteSpace=wrap;rounded=0;" vertex="1" parent="1">
          <mxGeometry x="620" y="1100" width="130" height="50" as="geometry" />
        </mxCell>
        <mxCell id="4yrj1IGlOvozGAcBZ6Sz-40" value="Testimonials text&lt;div&gt;&lt;b&gt;Source&lt;/b&gt;&lt;/div&gt;" style="text;html=1;align=left;verticalAlign=middle;whiteSpace=wrap;rounded=0;" vertex="1" parent="1">
          <mxGeometry x="400" y="1100" width="130" height="50" as="geometry" />
        </mxCell>
        <mxCell id="4yrj1IGlOvozGAcBZ6Sz-41" value="&lt;font style=&quot;font-size: 24px;&quot;&gt;Pricing&lt;/font&gt;" style="text;html=1;align=center;verticalAlign=middle;whiteSpace=wrap;rounded=0;fontColor=#000000;" vertex="1" parent="1">
          <mxGeometry x="355" y="1260" width="225" height="40" as="geometry" />
        </mxCell>
        <mxCell id="4yrj1IGlOvozGAcBZ6Sz-42" value="One monthly price. No hidden fees." style="text;html=1;align=center;verticalAlign=middle;whiteSpace=wrap;rounded=0;" vertex="1" parent="1">
          <mxGeometry x="320" y="1300" width="290" height="30" as="geometry" />
        </mxCell>
        <mxCell id="4yrj1IGlOvozGAcBZ6Sz-43" value="" style="rounded=1;whiteSpace=wrap;html=1;arcSize=6;" vertex="1" parent="1">
          <mxGeometry x="180" y="1390" width="200" height="390" as="geometry" />
        </mxCell>
        <mxCell id="4yrj1IGlOvozGAcBZ6Sz-44" value="" style="rounded=1;whiteSpace=wrap;html=1;arcSize=6;" vertex="1" parent="1">
          <mxGeometry x="567.5" y="1390" width="200" height="390" as="geometry" />
        </mxCell>
        <mxCell id="4yrj1IGlOvozGAcBZ6Sz-45" value="&lt;font size=&quot;5&quot;&gt;Free Trial&lt;/font&gt;" style="text;html=1;align=left;verticalAlign=middle;whiteSpace=wrap;rounded=0;fontColor=#000000;" vertex="1" parent="1">
          <mxGeometry x="195" y="1400" width="165" height="40" as="geometry" />
        </mxCell>
        <mxCell id="4yrj1IGlOvozGAcBZ6Sz-47" value="Try all our features and start building your community for free. No credit card is required." style="text;html=1;align=left;verticalAlign=middle;whiteSpace=wrap;rounded=0;" vertex="1" parent="1">
          <mxGeometry x="195" y="1450" width="170" height="30" as="geometry" />
        </mxCell>
        <mxCell id="4yrj1IGlOvozGAcBZ6Sz-48" value="&lt;font size=&quot;5&quot;&gt;$0&lt;/font&gt;" style="text;html=1;align=left;verticalAlign=middle;whiteSpace=wrap;rounded=0;fontColor=#000000;" vertex="1" parent="1">
          <mxGeometry x="195" y="1510" width="165" height="40" as="geometry" />
        </mxCell>
        <mxCell id="4yrj1IGlOvozGAcBZ6Sz-50" value="" style="endArrow=none;html=1;rounded=0;labelBackgroundColor=#3333FF;" edge="1" parent="1">
          <mxGeometry width="50" height="50" relative="1" as="geometry">
            <mxPoint x="195" y="1560" as="sourcePoint" />
            <mxPoint x="355" y="1560" as="targetPoint" />
          </mxGeometry>
        </mxCell>
        <mxCell id="4yrj1IGlOvozGAcBZ6Sz-51" value="&lt;font size=&quot;5&quot;&gt;Pro&lt;/font&gt;" style="text;html=1;align=left;verticalAlign=middle;whiteSpace=wrap;rounded=0;fontColor=#000000;" vertex="1" parent="1">
          <mxGeometry x="585" y="1400" width="165" height="40" as="geometry" />
        </mxCell>
        <mxCell id="4yrj1IGlOvozGAcBZ6Sz-52" value="One price, monthly plan." style="text;html=1;align=left;verticalAlign=middle;whiteSpace=wrap;rounded=0;" vertex="1" parent="1">
          <mxGeometry x="585" y="1450" width="170" height="30" as="geometry" />
        </mxCell>
        <mxCell id="4yrj1IGlOvozGAcBZ6Sz-53" value="&lt;font size=&quot;5&quot;&gt;$99&lt;/font&gt;" style="text;html=1;align=left;verticalAlign=middle;whiteSpace=wrap;rounded=0;fontColor=#000000;" vertex="1" parent="1">
          <mxGeometry x="585" y="1510" width="165" height="40" as="geometry" />
        </mxCell>
        <mxCell id="4yrj1IGlOvozGAcBZ6Sz-54" value="" style="endArrow=none;html=1;rounded=0;labelBackgroundColor=#3333FF;" edge="1" parent="1">
          <mxGeometry width="50" height="50" relative="1" as="geometry">
            <mxPoint x="585" y="1560" as="sourcePoint" />
            <mxPoint x="745" y="1560" as="targetPoint" />
          </mxGeometry>
        </mxCell>
        <mxCell id="4yrj1IGlOvozGAcBZ6Sz-55" value="" style="shape=image;html=1;verticalAlign=top;verticalLabelPosition=bottom;labelBackgroundColor=#ffffff;imageAspect=0;aspect=fixed;image=https://cdn4.iconfinder.com/data/icons/ionicons/512/icon-checkmark-128.png" vertex="1" parent="1">
          <mxGeometry x="195" y="1580" width="28" height="28" as="geometry" />
        </mxCell>
        <mxCell id="4yrj1IGlOvozGAcBZ6Sz-56" value="" style="shape=image;html=1;verticalAlign=top;verticalLabelPosition=bottom;labelBackgroundColor=#ffffff;imageAspect=0;aspect=fixed;image=https://cdn4.iconfinder.com/data/icons/ionicons/512/icon-checkmark-128.png" vertex="1" parent="1">
          <mxGeometry x="195" y="1620" width="28" height="28" as="geometry" />
        </mxCell>
        <mxCell id="4yrj1IGlOvozGAcBZ6Sz-57" value="" style="shape=image;html=1;verticalAlign=top;verticalLabelPosition=bottom;labelBackgroundColor=#ffffff;imageAspect=0;aspect=fixed;image=https://cdn4.iconfinder.com/data/icons/ionicons/512/icon-checkmark-128.png" vertex="1" parent="1">
          <mxGeometry x="195" y="1660" width="28" height="28" as="geometry" />
        </mxCell>
        <mxCell id="4yrj1IGlOvozGAcBZ6Sz-58" value="Text" style="text;html=1;align=left;verticalAlign=middle;whiteSpace=wrap;rounded=0;" vertex="1" parent="1">
          <mxGeometry x="230" y="1658" width="60" height="30" as="geometry" />
        </mxCell>
        <mxCell id="4yrj1IGlOvozGAcBZ6Sz-59" value="Text" style="text;html=1;align=left;verticalAlign=middle;whiteSpace=wrap;rounded=0;" vertex="1" parent="1">
          <mxGeometry x="230" y="1618" width="60" height="30" as="geometry" />
        </mxCell>
        <mxCell id="4yrj1IGlOvozGAcBZ6Sz-60" value="Text" style="text;html=1;align=left;verticalAlign=middle;whiteSpace=wrap;rounded=0;" vertex="1" parent="1">
          <mxGeometry x="230" y="1578" width="60" height="30" as="geometry" />
        </mxCell>
        <mxCell id="4yrj1IGlOvozGAcBZ6Sz-61" value="" style="shape=image;html=1;verticalAlign=top;verticalLabelPosition=bottom;labelBackgroundColor=#ffffff;imageAspect=0;aspect=fixed;image=https://cdn4.iconfinder.com/data/icons/ionicons/512/icon-checkmark-128.png" vertex="1" parent="1">
          <mxGeometry x="585" y="1580" width="28" height="28" as="geometry" />
        </mxCell>
        <mxCell id="4yrj1IGlOvozGAcBZ6Sz-62" value="" style="shape=image;html=1;verticalAlign=top;verticalLabelPosition=bottom;labelBackgroundColor=#ffffff;imageAspect=0;aspect=fixed;image=https://cdn4.iconfinder.com/data/icons/ionicons/512/icon-checkmark-128.png" vertex="1" parent="1">
          <mxGeometry x="585" y="1620" width="28" height="28" as="geometry" />
        </mxCell>
        <mxCell id="4yrj1IGlOvozGAcBZ6Sz-63" value="" style="shape=image;html=1;verticalAlign=top;verticalLabelPosition=bottom;labelBackgroundColor=#ffffff;imageAspect=0;aspect=fixed;image=https://cdn4.iconfinder.com/data/icons/ionicons/512/icon-checkmark-128.png" vertex="1" parent="1">
          <mxGeometry x="585" y="1660" width="28" height="28" as="geometry" />
        </mxCell>
        <mxCell id="4yrj1IGlOvozGAcBZ6Sz-64" value="Text" style="text;html=1;align=left;verticalAlign=middle;whiteSpace=wrap;rounded=0;" vertex="1" parent="1">
          <mxGeometry x="620" y="1658" width="60" height="30" as="geometry" />
        </mxCell>
        <mxCell id="4yrj1IGlOvozGAcBZ6Sz-65" value="Text" style="text;html=1;align=left;verticalAlign=middle;whiteSpace=wrap;rounded=0;" vertex="1" parent="1">
          <mxGeometry x="620" y="1618" width="60" height="30" as="geometry" />
        </mxCell>
        <mxCell id="4yrj1IGlOvozGAcBZ6Sz-66" value="Text" style="text;html=1;align=left;verticalAlign=middle;whiteSpace=wrap;rounded=0;" vertex="1" parent="1">
          <mxGeometry x="620" y="1578" width="60" height="30" as="geometry" />
        </mxCell>
        <mxCell id="4yrj1IGlOvozGAcBZ6Sz-68" value="Sing Up" style="html=1;shadow=0;dashed=0;shape=mxgraph.bootstrap.rrect;rSize=5;strokeColor=none;strokeWidth=1;fillColor=#0085FC;fontColor=#FFFFFF;whiteSpace=wrap;align=center;verticalAlign=middle;spacingLeft=0;fontStyle=0;fontSize=16;spacing=5;" vertex="1" parent="1">
          <mxGeometry x="200" y="1710" width="160" height="40" as="geometry" />
        </mxCell>
        <mxCell id="4yrj1IGlOvozGAcBZ6Sz-69" value="Sing Up" style="html=1;shadow=0;dashed=0;shape=mxgraph.bootstrap.rrect;rSize=5;strokeColor=none;strokeWidth=1;fillColor=#0085FC;fontColor=#FFFFFF;whiteSpace=wrap;align=center;verticalAlign=middle;spacingLeft=0;fontStyle=0;fontSize=16;spacing=5;" vertex="1" parent="1">
          <mxGeometry x="587.5" y="1710" width="160" height="40" as="geometry" />
        </mxCell>
        <mxCell id="4yrj1IGlOvozGAcBZ6Sz-70" value="" style="rounded=0;whiteSpace=wrap;html=1;fillColor=#666666;" vertex="1" parent="1">
          <mxGeometry x="105" y="1840" width="725" height="190" as="geometry" />
        </mxCell>
        <mxCell id="4yrj1IGlOvozGAcBZ6Sz-71" value="Icon" style="icon;html=1;image=img/clipart/Gear_128x128.png" vertex="1" parent="1">
          <mxGeometry x="180" y="1905" width="60" height="60" as="geometry" />
        </mxCell>
        <mxCell id="4yrj1IGlOvozGAcBZ6Sz-72" value="Line 1&lt;br&gt;Line 2&lt;br&gt;Line 3&lt;br&gt;&lt;div style=&quot;text-align: center;&quot;&gt;&lt;span style=&quot;caret-color: rgba(0, 0, 0, 0); color: rgba(0, 0, 0, 0); font-family: monospace; font-size: 0px; text-align: left;&quot;&gt;%3CmxGraphModel%3E%3Croot%3E%3CmxCell%20id%3D%220%22%2F%3E%3CmxCell%20id%3D%221%22%20parent%3D%220%22%2F%3E%3CmxCell%20id%3D%222%22%20value%3D%22%22%20style%3D%22rounded%3D0%3BwhiteSpace%3Dwrap%3Bhtml%3D1%3BfillColor%3D%23666666%3B%22%20vertex%3D%221%22%20parent%3D%221%22%3E%3CmxGeometry%20x%3D%22105%22%20y%3D%22520%22%20width%3D%22725%22%20height%3D%22720%22%20as%3D%22geometry%22%2F%3E%3C%2FmxCell%3E%3C%2Froot%3E%3C%2FmxGraphModel%3E&lt;/span&gt;Line 4&lt;/div&gt;" style="strokeWidth=1;shadow=0;dashed=0;align=center;html=1;shape=mxgraph.mockup.text.bulletedList;textColor=#666666;mainText=,,,,;textSize=17;bulletStyle=none;strokeColor=none;fillColor=none;align=left;verticalAlign=top;fontSize=17;fontColor=#FFFFFF;" vertex="1" parent="1">
          <mxGeometry x="380" y="1888.75" width="150" height="92.5" as="geometry" />
        </mxCell>
        <mxCell id="4yrj1IGlOvozGAcBZ6Sz-74" value="Line 1&lt;br&gt;Line 2&lt;br&gt;Line 3&lt;br&gt;&lt;div style=&quot;text-align: center;&quot;&gt;&lt;span style=&quot;caret-color: rgba(0, 0, 0, 0); color: rgba(0, 0, 0, 0); font-family: monospace; font-size: 0px; text-align: left;&quot;&gt;%3CmxGraphModel%3E%3Croot%3E%3CmxCell%20id%3D%220%22%2F%3E%3CmxCell%20id%3D%221%22%20parent%3D%220%22%2F%3E%3CmxCell%20id%3D%222%22%20value%3D%22%22%20style%3D%22rounded%3D0%3BwhiteSpace%3Dwrap%3Bhtml%3D1%3BfillColor%3D%23666666%3B%22%20vertex%3D%221%22%20parent%3D%221%22%3E%3CmxGeometry%20x%3D%22105%22%20y%3D%22520%22%20width%3D%22725%22%20height%3D%22720%22%20as%3D%22geometry%22%2F%3E%3C%2FmxCell%3E%3C%2Froot%3E%3C%2FmxGraphModel%3E&lt;/span&gt;Line 4&lt;/div&gt;" style="strokeWidth=1;shadow=0;dashed=0;align=center;html=1;shape=mxgraph.mockup.text.bulletedList;textColor=#666666;mainText=,,,,;textSize=17;bulletStyle=none;strokeColor=none;fillColor=none;align=left;verticalAlign=top;fontSize=17;fontColor=#FFFFFF;" vertex="1" parent="1">
          <mxGeometry x="595" y="1888.75" width="150" height="92.5" as="geometry" />
        </mxCell>
      </root>
    </mxGraphModel>
  </diagram>
</mxfile>
